HIERARCHY
ROOT Hips
{
  OFFSET 3.13124 94.3669 -3.18751
  CHANNELS  6 Xposition Yposition Zposition Zrotation Xrotation Yrotation
  JOINT LeftUpLeg
  {
    OFFSET 8.64259 1.95398 -2.38835
    CHANNELS 3 Zrotation Xrotation Yrotation
    JOINT LeftLeg
    {
      OFFSET 43.7702 0 0
      CHANNELS 3 Zrotation Xrotation Yrotation
      JOINT LeftFoot
      {
        OFFSET 40.6238 0 0
        CHANNELS 3 Zrotation Xrotation Yrotation
        JOINT LeftToeBase
        {
          OFFSET 12.7242 0 0
          CHANNELS 3 Zrotation Xrotation Yrotation
          End Site
          {
            OFFSET 0 0 0
          }
        }
      }
    }
  }
  JOINT RightUpLeg
  {
    OFFSET -8.2249 1.95398 -2.59336
    CHANNELS 3 Zrotation Xrotation Yrotation
    JOINT RightLeg
    {
      OFFSET 43.5653 0 0
      CHANNELS 3 Zrotation Xrotation Yrotation
      JOINT RightFoot
      {
        OFFSET 40.6238 0 0
        CHANNELS 3 Zrotation Xrotation Yrotation
        JOINT RightToeBase
        {
          OFFSET 12.7242 0 0
          CHANNELS 3 Zrotation Xrotation Yrotation
          End Site
          {
            OFFSET 0 0 0
          }
        }
      }
    }
  }
  JOINT Spine
  {
    OFFSET 0.165834 0.87714 6.61349
    CHANNELS 3 Zrotation Xrotation Yrotation
    JOINT Spine1
    {
      OFFSET 7.38962 1.71661e-005 0
      CHANNELS 3 Zrotation Xrotation Yrotation
      JOINT Spine2
      {
        OFFSET 11.9445 1.14441e-005 0
        CHANNELS 3 Zrotation Xrotation Yrotation
        JOINT Spine3
        {
          OFFSET 14.7254 4.19617e-005 0
          CHANNELS 3 Zrotation Xrotation Yrotation
          JOINT Spine4
          {
            OFFSET 10.9679 0 0
            CHANNELS 3 Zrotation Xrotation Yrotation
            JOINT RightShoulder
            {
              OFFSET 2.46616 -1.6653 3.69651
              CHANNELS 3 Zrotation Xrotation Yrotation
              JOINT RightArm
              {
                OFFSET 13.0012 0 0
                CHANNELS 3 Zrotation Xrotation Yrotation
                JOINT RightForeArm
                {
                  OFFSET 28.7848 1.52588e-005 0
                  CHANNELS 3 Zrotation Xrotation Yrotation
                  JOINT RightHand
                  {
                    OFFSET 26.5688 1.52588e-005 0
                    CHANNELS 3 Zrotation Xrotation Yrotation
                    End Site
                    {
                      OFFSET 0 0 0
                    }
                  }
                }
              }
            }
            JOINT LeftShoulder
            {
              OFFSET 2.38034 -1.29275 -3.75231
              CHANNELS 3 Zrotation Xrotation Yrotation
              JOINT LeftArm
              {
                OFFSET 16.3182 6.10352e-005 0
                CHANNELS 3 Zrotation Xrotation Yrotation
                JOINT LeftForeArm
                {
                  OFFSET 27.0901 0 0
                  CHANNELS 3 Zrotation Xrotation Yrotation
                  JOINT LeftHand
                  {
                    OFFSET 24.5451 1.52588e-005 0
                    CHANNELS 3 Zrotation Xrotation Yrotation
                    End Site
                    {
                      OFFSET 0 0 0
                    }
                  }
                }
              }
            }
            JOINT Neck
            {
              OFFSET 5.0226 -0.0266342 0
              CHANNELS 3 Zrotation Xrotation Yrotation
              JOINT Head
              {
                OFFSET 6.69363 2.86102e-005 0
                CHANNELS 3 Zrotation Xrotation Yrotation
                End Site
                {
                  OFFSET 0 0 0
                }
              }
            }
          }
        }
      }
    }
  }
}
MOTION
Frames:	7
Frame Time:	0.0333333
64.7709 102.3 36.8529 94.6047 -49.541 95.5525 -172.672 4.69298 91.5328 -14.6322 3.32409 -0.653133 58.9786 0.0536981 -0.211471 28.7808 5.82464e-006 9.93097e-007 176.822 -2.12344 84.5729 -4.34224 -5.52051 -0.309673 57.2344 2.63556 1.94325 28.7808 1.64481e-005 3.63149e-005 -0.131606 6.40218 -90.0729 14.0688 -0.319371 -0.231352 2.39787 -0.329273 -0.217076 -20.1373 -0.235103 -0.316643 -0.124662 -0.2351 -0.316655 97.4442 -30.2037 -91.716 48.9159 9.5639 -47.6313 -1.668 0.685913 1.52599e-005 -5.37983 -0.320016 -0.0162402 -82.0419 -37.8389 89.6139 -47.3144 -11.7239 -36.5742 -168.085 82.0221 -179.79 -22.769 1.79109 -15.3119 -13.7858 0.994929 1.14589 -18.2278 0.990889 -0.0298737 
65.0805 102.335 37.7722 94.9397 -49.499 95.9099 -172.491 3.77184 91.8735 -14.394 3.78274 -0.353423 59.5752 -0.301719 -0.414752 28.7808 5.82464e-006 9.93097e-007 177.044 -3.00066 84.968 -4.31502 -4.95619 -0.278394 57.683 2.20857 1.64032 28.7808 1.64481e-005 3.63149e-005 -0.0569384 6.20652 -90.017 14.4606 -0.155519 -0.179782 2.78963 -0.163302 -0.172759 -19.7455 -0.094307 -0.21821 0.267187 -0.0943122 -0.21821 97.8033 -25.7853 -91.6704 44.8311 8.59034 -55.3008 0.386936 0.531906 0.00122076 -5.37983 -0.320016 -0.0162402 -81.9342 -34.2321 89.4198 -41.3881 -8.40516 -46.7662 8.67044 88.6058 0.695349 -11.9132 1.59624 -24.0937 -12.4081 0.692637 2.19694 -16.8758 0.619145 0.0846212 
65.4676 102.33 38.7876 95.2382 -49.6935 95.9666 -172.267 2.78875 92.0432 -14.1953 3.95097 -0.277195 60.1357 -0.590478 -0.581592 28.7808 5.82464e-006 9.93097e-007 177.146 -4.14075 85.0703 -3.80555 -4.58334 -0.256354 58.4131 2.04971 1.49185 28.7808 1.64481e-005 3.63149e-005 0.0203093 6.03438 -89.8084 14.8048 0.0249541 -0.0831083 3.13384 0.0213 -0.0841297 -19.4013 0.0487915 -0.0717564 0.61134 0.0487875 -0.0717703 98.4114 -20.7487 -91.1334 40.6232 8.6117 -63.2697 -0.628455 0.385773 -0.017197 -5.37983 -0.320016 -0.0162402 -81.7532 -29.6145 89.2319 -34.3311 -7.57548 -55.6045 5.1757 76.3535 -0.0759119 -16.2043 2.38226 -24.499 -9.01992 0.605237 3.16455 -15.8586 0.336947 0.623107 
65.9249 102.274 39.8583 95.0235 -50.1426 95.6114 -171.921 2.10721 92.2972 -14.0373 4.50731 -0.277516 60.7155 -1.15902 -0.917424 28.7808 5.82464e-006 9.93097e-007 177.204 -4.66583 85.029 -3.81685 -4.88161 -0.271988 59.3999 1.88638 1.34015 28.7808 1.64481e-005 3.63149e-005 0.065379 5.87837 -89.6043 15.117 0.121069 -0.033683 3.44603 0.119452 -0.0389813 -19.0892 0.125604 0.0042596 0.923462 0.125573 0.00425506 99.1929 -14.916 -90.176 36.5999 9.82279 -70.7238 0.765174 0.448075 -0.662313 -5.37983 -0.320016 -0.0162402 -81.0008 -25.3895 90.2645 -28.9544 -9.42382 -63.85 3.98514 65.3782 -2.43063 -8.32347 0.748517 -19.9528 -3.25692 0.907484 4.72091 -15.4851 0.239279 1.14948 
66.52 102.216 40.8817 94.5167 -50.571 94.8406 -171.788 1.61191 92.2815 -13.9835 5.23547 -0.169958 61.0985 -1.94667 -1.38543 28.7808 5.82464e-006 9.93097e-007 177.026 -5.01696 84.6232 -3.81088 -5.68711 -0.315191 60.3837 1.88007 1.28874 28.7808 1.64481e-005 3.63149e-005 0.0615061 5.73274 -89.4308 15.4078 0.120032 0.043724 3.73687 0.12185 0.0383891 -18.7983 0.101338 0.0777821 1.21433 0.101339 0.0777735 99.917 -9.07244 -89.1074 32.3401 12.6289 -76.5933 0.683409 0.286552 -2.926 -5.37983 -0.320016 -0.0162402 -79.8217 -21.8697 92.4666 -22.9532 -12.4365 -70.6876 2.99842 54.2521 -7.69155 -1.14173 -0.127327 -5.36155 4.67639 1.7536 7.33662 -16.3483 0.375688 0.236575 
67.0862 102.176 41.8885 93.4815 -50.9718 93.9315 -171.568 1.35981 92.4911 -13.5966 5.9004 -0.134275 61.4538 -2.63878 -1.78032 28.7808 5.82464e-006 9.93097e-007 177.062 -5.00898 84.621 -3.80733 -5.86245 -0.324167 61.0128 1.71541 1.15916 28.7808 1.64481e-005 3.63149e-005 0.0307221 5.59381 -89.3513 15.685 0.056542 0.0721054 4.01404 0.0596888 0.0695348 -18.5211 0.0322549 0.0857672 1.49153 0.0322583 0.0857631 100.721 -4.13927 -87.3639 28.5653 16.2944 -81.711 0.38588 0.176433 -4.77575 -5.37983 -0.320016 -0.0162402 -78.3409 -19.4581 95.6962 -19.8383 -16.4897 -77.6919 1.99971 46.4088 -8.68414 4.04064 -0.132731 -5.02507 14.3795 3.13137 9.78075 -18.3382 0.545607 -0.590207 
67.6592 102.284 42.8589 92.4373 -51.462 93.2842 -171.326 1.13703 92.8979 -13.1022 6.2706 -0.132729 61.3031 -3.15639 -2.10062 28.7808 5.82464e-006 9.93097e-007 177.172 -4.92949 84.8555 -3.80353 -6.42116 -0.354385 60.9852 1.54891 1.06101 28.7808 1.64481e-005 3.63149e-005 0.028998 5.42078 -89.3715 16.0311 0.0560908 0.085281 4.36017 0.059791 0.0827281 -18.175 0.0278495 0.0981941 1.83768 0.027846 0.0981896 101.378 -1.03731 -85.395 24.7872 20.7466 -85.3204 0.500648 0.109439 -6.17115 -5.37983 -0.320016 -0.0162402 -77.4163 -18.3456 97.859 -16.2923 -21.921 -82.8786 1.29869 40.9135 -8.92181 4.98014 -0.653291 -13.0467 23.2224 4.26461 10.9146 -19.9698 0.496946 -0.898367 
